<svg id="cat-vector" xmlns="http://www.w3.org/2000/svg" xmlns:xlink="http://www.w3.org/1999/xlink" viewBox="0 0 512 512">
  <linearGradient id="linear-gradient" x1="150.614" y1="482" x2="361.386" y2="30" gradientUnits="userSpaceOnUse"><stop offset="-0.15" stop-color="#333"/><stop offset="0.885" stop-color="#9d8563"/><stop offset="1.15" stop-color="#9d8563"/></linearGradient>
  <path id="bg" fill="#fff" fill-rule="evenodd" d="M150.006,463.927C4.04,398.939,3.464,320.069,71.93,283.855c-8.208.2-26.04,3.754-33.032,6C9,299.473,11.071,254.243,23.884,215.828A286.277,286.277,0,0,1,55.915,149.8S40.776,92.83,64.924,45.76c34.535-67.32,93.091,24.01,93.091,24.01S204.419,43.6,285.138,55.764,411.26,118.789,411.26,118.789s67.265-43.8,82.08,2c14.573,45.05-19.018,114.045-19.018,114.045s6.486,20.889,2,82.033S436.386,420.91,418.267,420.91c-8.334,0-13.5-10.919-18.017-16.007C397.905,509.03,242.753,505.219,150.006,463.927Z"/>
  <path id="cat" fill="url(#linear-gradient)" fill-rule="evenodd" d="M295.183,188.525s-7.475-5.438-16.455-6.275c-0.8-.074-2.158,8.076-2.158,8.076s-1.654-8.228-2.356-8.195c-5.838.273-11.558,2.364-15.256,8.195-4.831,7.618-.346,17.133,5.847,25.142,0.258,0.334,3.76-4.33,3.76-4.33s-2.342,6.107-2.019,6.493a106.529,106.529,0,0,0,14.827,14.318,99.767,99.767,0,0,0,22.838-6.766c0.378-.17,1.179-6.041,1.179-6.041s0.9,5.066,1.364,4.83C314.634,220,321.633,214.3,323,206.335c1.245-7.252-2.069-11.769-6.771-14.582-0.7-.417-6.038,6.578-6.038,6.578s2.15-8.456,1.271-8.763C304.012,186.963,295.183,188.525,295.183,188.525ZM29,279.576c-6.4-5.4-5.575-30.675,5.8-65.237,12.665-38.468,32.022-62.434,32.022-62.434s-15.739-43.1,5.2-98.454c24.926-65.888,82.856,28.015,82.856,28.015S203.881,53.29,284.576,65.457,409.46,131.093,409.46,131.093s65.6-47.514,75.851.4C494.467,174.277,463.3,233.55,463.3,233.55s8.486,16.889,4,78.043-38.426,99.055-48.032,99.055-55.7-102.924-184.325-130.672S35.407,284.979,29,279.576ZM418.266,142.5s52.516-38.082,58.44-5.6c7.433,40.759-16.412,85.647-16.412,85.647a239.959,239.959,0,0,0-19.012-46.025C428.523,153.256,418.266,142.5,418.266,142.5ZM147.083,85.468S98.249,2.141,79.037,59.454c-15.177,45.275,2,77.042,2,77.042s18.679-18.61,32.022-29.016S147.083,85.468,147.083,85.468Zm148.1,102.057s-8.489-3.436-8.406-10.606,11.374-7.454,11.208,0c4.186-5,12.275-1.7,9.606,4.8S295.183,187.525,295.183,187.525Zm46.662-18.965c-21.534,26.538,38.613,6.861,101.238,65.1C432.551,141.048,363.378,142.022,341.845,168.56ZM258.958,148.7c8.56,33.088-38.935-8.743-120.061,18.212C188.07,86.283,250.4,115.618,258.958,148.7Zm71.9,49.757c0.115-3.892,95.31,27.4,75.309,109.9C421.234,221.432,330.745,202.353,330.859,198.46Zm-0.047-1.6c0.115-3.893,105.746,24.35,123.743,122.891C431.865,217.23,330.7,200.753,330.812,196.86Zm-0.047-1.6c0.115-3.893,112.384,16.605,150.151,94.888C437.13,209.525,330.651,199.153,330.765,195.26Zm-75.571-12.876c1.536-3.579-97.983-15.307-114.611,67.935C163.554,165.138,253.657,185.962,255.194,182.384Zm0.717-1.432c1.536-3.579-106.161-22.471-164.011,59.311C155.683,156.849,254.374,184.531,255.911,180.952Zm0.717-1.431c1.536-3.579-108.917-32.292-176.158,22.79C154.155,147.643,255.091,183.1,256.628,179.521Zm-30.492-60.034c13.028,3.421-3.736,36.487-8,36.02C214.275,155.085,212.211,115.83,226.136,119.487Zm164.111,37.02c14.931,4.216-5.6,37.154-9.006,36.02C377.95,191.431,376.629,152.663,390.247,156.507ZM287.778,233.55s-1.442,54.829,43.429,88.049c140.885,104.3,10.826,212.489-177.92,132.873-173.093-73.013-138.676-176.877,9.606-180.9,89.612-2.431,132.8,38.425,126.286,8C283.075,253.092,287.778,233.55,287.778,233.55ZM95.294,333.355S76.227,395.886,60.325,367.23s8.7-46.341,31.908-58.024,22.076,19.285,22.076,19.285,23.251-54.933,36.228-4.591-10.933,51.686-21.363,44.42-3.061-24.149-3.061-24.149-6.051,15.182-20.818,10S95.294,333.355,95.294,333.355Zm128.684,27.857c9.25-20.188-6.546-41.956-39.017-36.767s-40.671,54.227-14.968,75.507,41.217-.317,32.894-11.53-14.418-.013-25.682-9.014,0.183-25.173,5.409-15.407S214.727,381.4,223.978,361.212Zm39.833-14.862c41.57,18.195,6.537,69.714-25.241,71.9S222.241,328.155,263.811,346.35ZM334.9,423.218s19.067-62.531,34.97-33.876-8.7,46.342-31.909,58.025-22.076-19.285-22.076-19.285-23.251,54.933-36.227,4.591,10.932-51.686,21.362-44.42,3.062,24.149,3.062,24.149,6.05-15.182,20.818-10S334.9,423.218,334.9,423.218ZM194.962,345.26c-0.748-7.112,15.867-3.084,10.273,3.606S195.71,352.373,194.962,345.26Zm43.88,55.781c-8.138-2.5,5.088-15.52,8.743-8.469S246.981,403.537,238.842,401.041Z"/>
</svg>
