<svg xmlns="http://www.w3.org/2000/svg" width="2048" height="2048" viewBox="0 0 128 128">
  <path fill="#fff" d="M37.5,115.982C1.01,99.735.866,80.017,17.983,70.964a42.157,42.157,0,0,0-8.258,1.5c-7.476,2.4-6.957-8.9-3.754-18.507A71.571,71.571,0,0,1,13.979,37.45s-3.785-14.243,2.252-26.01c8.634-16.83,23.273,6,23.273,6s11.6-6.543,31.781-3.5A56.179,56.179,0,0,1,102.815,29.7s16.816-10.95,20.52.5c3.643,11.263-4.755,28.511-4.755,28.511s1.622,5.222.5,20.508-9.985,26.01-14.514,26.01c-2.084,0-3.375-2.729-4.5-4C99.476,127.258,60.688,126.305,37.5,115.982Z"/>
  <path fill="url(#gradient)" fill-rule="evenodd" d="M73.8,47.131a9.374,9.374,0,0,0-4.114-1.569,7.412,7.412,0,0,0-.54,2.019,8.9,8.9,0,0,0-.589-2.049,4.5,4.5,0,0,0-3.814,2.049c-1.208,1.9-.087,4.283,1.462,6.286a6.647,6.647,0,0,0,.94-1.083,9.135,9.135,0,0,0-.5,1.623,26.645,26.645,0,0,0,3.707,3.58A24.934,24.934,0,0,0,76.053,56.3a9.338,9.338,0,0,0,.295-1.51,4.1,4.1,0,0,0,.341,1.208c1.97-.992,3.72-2.418,4.062-4.409a3.294,3.294,0,0,0-1.693-3.645,8.366,8.366,0,0,0-1.51,1.644s0.538-2.114.318-2.191A9.3,9.3,0,0,0,73.8,47.131ZM7.251,69.894C5.65,68.543,5.857,62.225,8.7,53.585a53.759,53.759,0,0,1,8.005-15.609s-3.935-10.774,1.3-24.614c6.232-16.472,20.714,7,20.714,7s12.248-7.044,32.422-4a53.3,53.3,0,0,1,31.221,16.409s16.4-11.879,18.963.1c2.289,10.7-5.5,25.514-5.5,25.514s2.122,4.222,1,19.511-9.607,24.764-12.008,24.764S90.891,76.931,58.736,69.994,8.852,71.245,7.251,69.894Zm97.315-34.269s13.13-9.52,14.61-1.4c1.859,10.19-4.1,21.412-4.1,21.412A60,60,0,0,0,110.32,44.13,43.851,43.851,0,0,0,104.566,35.625Zm-67.8-14.258s-12.208-20.832-17.011-6.5c-3.794,11.319.5,19.261,0.5,19.261s4.67-4.653,8.005-7.254A83.037,83.037,0,0,1,36.771,21.367ZM73.8,46.881s-2.122-.859-2.1-2.651,2.844-1.864,2.8,0c1.046-1.251,3.069-.425,2.4,1.2S73.8,46.881,73.8,46.881ZM85.461,42.14c-5.383,6.635,9.653,1.715,25.31,16.276C108.138,35.262,90.845,35.505,85.461,42.14ZM64.74,37.176c2.14,8.272-9.734-2.186-30.015,4.553C47.018,21.571,62.6,28.9,64.74,37.176ZM82.715,49.615c0.029-.973,23.827,6.851,18.827,27.475C105.308,55.358,82.686,50.588,82.715,49.615Zm-0.012-.4c0.029-.973,26.437,6.087,30.936,30.723C107.966,54.307,82.675,50.188,82.7,49.215Zm-0.012-.4c0.029-.973,28.1,4.151,37.538,23.722C109.283,52.381,82.663,49.788,82.691,48.815ZM63.8,45.6c0.384-.895-24.5-3.827-28.653,16.984C40.889,41.285,63.414,46.491,63.8,45.6Zm0.179-.358c0.384-.895-26.54-5.618-41,14.828C38.921,39.212,63.594,46.133,63.978,45.238Zm0.179-.358c0.384-.895-27.229-8.073-44.039,5.7C38.539,36.911,63.773,45.775,64.157,44.88ZM56.534,29.872c3.257,0.855-.934,9.122-2,9C53.569,38.771,53.053,28.958,56.534,29.872Zm41.028,9.255c3.733,1.054-1.4,9.288-2.252,9C94.488,47.858,94.157,38.166,97.562,39.127ZM71.944,58.388S71.584,72.095,82.8,80.4c35.221,26.076,2.706,53.122-44.48,33.218C-4.952,95.365,3.653,69.4,40.723,68.393c22.4-.608,33.2,9.606,31.571,2A29.568,29.568,0,0,1,71.944,58.388ZM23.824,83.339s-4.767,15.633-8.742,8.469S17.255,80.222,23.058,77.3s5.519,4.821,5.519,4.821,5.813-13.733,9.057-1.148S34.9,93.9,32.294,92.08s-0.765-6.037-.765-6.037-1.513,3.8-5.2,2.5S23.824,83.339,23.824,83.339ZM55.994,90.3c2.313-5.047-1.636-10.489-9.754-9.192S36.073,94.668,42.5,99.988s10.3-.079,8.224-2.882-3.6,0-6.421-2.253S44.347,88.559,45.654,91,53.682,95.35,55.994,90.3Zm9.958-3.716c10.392,4.549,1.634,17.429-6.31,17.976S55.56,82.039,65.953,86.587Zm17.773,19.218s4.767-15.633,8.742-8.469-2.174,11.585-7.977,14.506-5.519-4.822-5.519-4.822-5.813,13.734-9.057,1.148,2.733-12.921,5.341-11.1,0.765,6.037.765,6.037,1.513-3.8,5.2-2.5S83.726,105.805,83.726,105.805ZM48.741,86.315c-0.187-1.778,3.967-.771,2.568.9S48.928,88.093,48.741,86.315Zm10.97,13.945c-2.035-.624,1.272-3.88,2.186-2.117S61.745,100.884,59.711,100.26Z"/>
  <linearGradient id="gradient" gradientTransform="rotate(115)"><stop stop-color="#9d8563"/><stop offset="0.8" stop-color="#222"/></linearGradient>
</svg>